<svg xmlns="http://www.w3.org/2000/svg" version="1.1" xmlns:xlink="http://www.w3.org/1999/xlink" xmlns:svgjs="http://svgjs.dev/svgjs" width="1500" height="1500" viewBox="0 0 1500 1500"><rect width="1500" height="1500" fill="#ffffff"></rect><g transform="matrix(0.6666666666666666,0,0,0.6666666666666666,249.39393939393938,640.8177936595383)"><svg viewBox="0 0 396 87" data-background-color="#111111" preserveAspectRatio="xMidYMid meet" height="329" width="1500" xmlns="http://www.w3.org/2000/svg" xmlns:xlink="http://www.w3.org/1999/xlink"><g id="tight-bounds" transform="matrix(1,0,0,1,0.2400000000000091,-0.19216435431533796)"><svg viewBox="0 0 395.52 87.38432870863069" height="87.38432870863069" width="395.52"><g><svg viewBox="0 0 533.5318291745505 117.87601319049837" height="87.38432870863069" width="395.52"><g transform="matrix(1,0,0,1,138.01182917455054,16.29111325570564)"><svg viewBox="0 0 395.52 85.29378667908709" height="85.29378667908709" width="395.52"><g id="textblocktransform"><svg viewBox="0 0 395.52 85.29378667908709" height="85.29378667908709" width="395.52" id="textblock"><g><svg viewBox="0 0 395.52 85.29378667908709" height="85.29378667908709" width="395.52"><g transform="matrix(1,0,0,1,0,0)"><svg width="395.52" viewBox="0.7 -36.3 214.68 46.3" height="85.29378667908709" data-palette-color="#ee3e38"><path d="M4.65 0.2L4.65 0.2Q3.1 0.2 1.9-0.55 0.7-1.3 0.7-3.05L0.7-3.05Q0.7-5.8 1.88-8.65 3.05-11.5 4.78-14.28 6.5-17.05 8.22-19.7 9.95-22.35 11.13-24.75 12.3-27.15 12.3-29.2L12.3-29.2Q12.3-30.85 11.5-30.85L11.5-30.85Q10.95-30.85 10.25-29.98 9.55-29.1 9.25-27.4L9.25-27.4 8.7-27.5Q8.7-30.35 10.05-32.33 11.4-34.3 13.5-35.3 15.6-36.3 17.8-36.3L17.8-36.3Q20.35-36.3 22.58-34.85 24.8-33.4 25.65-30.25L25.65-30.25Q26-29 26.18-27.45 26.35-25.9 26.4-24.78 26.45-23.65 26.45-23.65L26.45-23.65Q26.55-19.6 26.63-16.8 26.7-14 26.9-12.1 27.1-10.2 27.45-8.9L27.45-8.9Q27.8-7.65 28.38-6.88 28.95-6.1 29.85-6.1L29.85-6.1Q30.7-6.1 31.33-6.6 31.95-7.1 32.15-7.55L32.15-7.55 32.5-7.3Q32.5-5 31.6-3.3 30.7-1.6 29.25-0.7 27.8 0.2 26.2 0.2L26.2 0.2Q24.65 0.2 23.18-0.73 21.7-1.65 20.6-3.6 19.5-5.55 19.15-8.65L19.15-8.65Q17.6-8.75 16.13-8.83 14.65-8.9 13.45-8.9L13.45-8.9Q12.65-8.9 11.93-8.88 11.2-8.85 10.5-8.8L10.5-8.8Q10.05-7.25 9.78-5.68 9.5-4.1 9.5-2.6L9.5-2.6Q9.5-1.45 8-0.63 6.5 0.2 4.65 0.2ZM12.15-13.45L12.15-13.45Q13.4-13.8 14.8-13.93 16.2-14.05 17.8-14.05L17.8-14.05 18.9-14.05Q18.8-17.75 18.63-21.65 18.45-25.55 17.35-28.9L17.35-28.9Q16.95-25.3 15.35-21.35 13.75-17.4 12.15-13.45ZM42.15 0.2L42.15 0.2Q40.35 0.2 38.77-1.05 37.2-2.3 36.22-4.7 35.25-7.1 35.25-10.5L35.25-10.5Q35.25-14 36.25-16.75 37.25-19.5 38.87-21.43 40.5-23.35 42.42-24.35 44.35-25.35 46.2-25.35L46.2-25.35Q48.25-25.35 49.85-24.08 51.45-22.8 52.05-20.1L52.05-20.1Q52.5-22.6 52.82-24.88 53.15-27.15 53.15-28.9L53.15-28.9Q53.15-31.2 52.55-32.25L52.55-32.25 52.55-32.55Q53.7-33.85 55.07-34.48 56.45-35.1 57.7-35.1L57.7-35.1Q59.35-35.1 60.5-34.08 61.65-33.05 61.65-31.15L61.65-31.15Q61.65-30.1 61.3-28.05 60.95-26 60.45-23.38 59.95-20.75 59.42-17.98 58.9-15.2 58.55-12.68 58.2-10.15 58.2-8.3L58.2-8.3Q58.2-6.75 58.52-5.83 58.85-4.9 59.6-4.9L59.6-4.9Q60.15-4.9 60.72-5.28 61.3-5.65 61.5-6.15L61.5-6.15 61.85-5.9Q61.85-4.25 60.8-2.88 59.75-1.5 58.15-0.65 56.55 0.2 54.85 0.2L54.85 0.2Q53 0.2 51.92-0.83 50.85-1.85 50.4-3.45 49.95-5.05 49.9-6.75L49.9-6.75Q48.35-3.15 46.27-1.48 44.2 0.2 42.15 0.2ZM45.5-6.15L45.5-6.15Q46.8-6.15 48.4-8.5 50-10.85 51.2-15.35L51.2-15.35 51.5-16.9Q50.7-18.75 49.77-19.53 48.85-20.3 48-20.3L48-20.3Q46.75-20.3 45.65-18.93 44.55-17.55 43.87-15.43 43.2-13.3 43.2-10.95L43.2-10.95Q43.2-8.7 43.85-7.43 44.5-6.15 45.5-6.15ZM72.59 0.45L72.59 0.45Q69.5 0.45 67.45-0.4 65.4-1.25 64.4-2.58 63.4-3.9 63.4-5.25L63.4-5.25Q63.4-7.15 65.09-8.63 66.8-10.1 69.7-10.1L69.7-10.1Q69.7-7.55 70.34-6.03 71-4.5 72.02-3.85 73.05-3.2 74-3.2L74-3.2Q75.15-3.2 75.92-3.88 76.7-4.55 76.7-5.55L76.7-5.55Q76.7-6.95 75.25-8 73.8-9.05 71.5-10.35L71.5-10.35Q70.34-11.05 69-11.98 67.65-12.9 66.7-14.23 65.75-15.55 65.75-17.4L65.75-17.4Q65.75-19.35 66.87-20.85 68-22.35 69.84-23.38 71.7-24.4 73.84-24.93 76-25.45 78.05-25.45L78.05-25.45Q81.9-25.45 83.84-23.9 85.8-22.35 85.8-20.6L85.8-20.6Q85.8-19.1 84.3-17.9 82.8-16.7 79.7-16.7L79.7-16.7Q79.75-19.25 78.65-20.43 77.55-21.6 76.3-21.6L76.3-21.6Q75.4-21.6 74.8-21.05 74.2-20.5 74.2-19.45L74.2-19.45Q74.2-18.25 74.97-17.38 75.75-16.5 76.92-15.83 78.09-15.15 79.34-14.55L79.34-14.55Q81.05-13.75 82.55-12.85 84.05-11.95 85-10.8 85.95-9.65 85.95-8L85.95-8Q85.95-5.75 84.12-3.83 82.3-1.9 79.25-0.73 76.2 0.45 72.59 0.45ZM93.44 10L93.44 10Q92.19 10 91.07 9.35 89.94 8.7 89.22 7.25 88.49 5.8 88.49 3.35L88.49 3.35Q88.49 1 89.12-1.75 89.74-4.5 90.54-7.28 91.34-10.05 91.97-12.55 92.59-15.05 92.59-17L92.59-17Q92.59-18.45 92.19-18.98 91.79-19.5 91.24-19.5L91.24-19.5Q90.74-19.5 90.24-19.2 89.74-18.9 89.39-18.5L89.39-18.5 89.04-18.7Q89.04-20.45 90.07-21.93 91.09-23.4 92.69-24.3 94.29-25.2 95.99-25.2L95.99-25.2Q97.64-25.2 98.64-24.38 99.64-23.55 100.17-22.25 100.69-20.95 100.79-19.45L100.79-19.45Q102.69-22.45 104.94-23.9 107.19-25.35 109.19-25.35L109.19-25.35Q111.89-25.35 113.77-22.8 115.64-20.25 115.64-14.9L115.64-14.9Q115.64-9.9 114.04-6.53 112.44-3.15 110.02-1.48 107.59 0.2 105.09 0.2L105.09 0.2Q102.94 0.2 101.12-1.07 99.29-2.35 98.29-4.8L98.29-4.8Q97.84-2.75 97.52-0.75 97.19 1.25 97.19 3.15L97.19 3.15Q97.19 4.2 97.32 5.2 97.44 6.2 97.74 7.2L97.74 7.2 97.74 7.5Q97.09 8.75 95.92 9.38 94.74 10 93.44 10ZM102.64-4.65L102.64-4.65Q103.84-4.65 104.74-5.6 105.64-6.55 106.29-8.08 106.94-9.6 107.27-11.35 107.59-13.1 107.59-14.75L107.59-14.75Q107.59-16.85 107.04-18.32 106.49-19.8 105.34-19.8L105.34-19.8Q103.89-19.8 102.09-16.88 100.29-13.95 99.29-8L99.29-8Q99.74-6.45 100.64-5.55 101.54-4.65 102.64-4.65ZM129.14 0.35L129.14 0.35Q125.49 0.35 123.09-1.13 120.69-2.6 119.49-5.03 118.29-7.45 118.29-10.25L118.29-10.25Q118.29-12.9 119.31-15.58 120.34-18.25 122.31-20.45 124.29-22.65 127.12-24 129.94-25.35 133.49-25.35L133.49-25.35Q137.89-25.35 139.91-23.38 141.94-21.4 141.94-18.6L141.94-18.6Q141.94-16.2 140.66-14.18 139.39-12.15 137.29-10.93 135.19-9.7 132.69-9.7L132.69-9.7Q131.39-9.7 130.04-10.1 128.69-10.5 127.39-11.35L127.39-11.35Q127.64-8.25 129.19-6.85 130.74-5.45 132.89-5.45L132.89-5.45Q134.39-5.45 135.89-6.03 137.39-6.6 138.66-7.53 139.94-8.45 140.64-9.5L140.64-9.5 140.99-9.25Q140.99-6.65 139.91-4.83 138.84-3 137.09-1.85 135.34-0.7 133.26-0.18 131.19 0.35 129.14 0.35ZM130.29-13.15L130.29-13.15Q131.89-13.15 132.89-14.08 133.89-15 134.39-16.25 134.89-17.5 134.89-18.45L134.89-18.45Q134.89-19.6 134.24-20.38 133.59-21.15 132.44-21.15L132.44-21.15Q131.54-21.15 130.47-20.5 129.39-19.85 128.54-18.28 127.69-16.7 127.44-13.9L127.44-13.9Q129.04-13.15 130.29-13.15ZM151.59 0.2L151.59 0.2Q149.79 0.2 148.21-1.05 146.64-2.3 145.66-4.7 144.69-7.1 144.69-10.5L144.69-10.5Q144.69-14 145.69-16.75 146.69-19.5 148.31-21.43 149.94-23.35 151.86-24.35 153.79-25.35 155.64-25.35L155.64-25.35Q157.69-25.35 159.29-24.08 160.89-22.8 161.49-20.1L161.49-20.1Q161.94-22.6 162.26-24.88 162.59-27.15 162.59-28.9L162.59-28.9Q162.59-31.2 161.99-32.25L161.99-32.25 161.99-32.55Q163.14-33.85 164.51-34.48 165.89-35.1 167.14-35.1L167.14-35.1Q168.79-35.1 169.94-34.08 171.09-33.05 171.09-31.15L171.09-31.15Q171.09-30.1 170.74-28.05 170.39-26 169.89-23.38 169.39-20.75 168.86-17.98 168.34-15.2 167.99-12.68 167.64-10.15 167.64-8.3L167.64-8.3Q167.64-6.75 167.96-5.83 168.29-4.9 169.04-4.9L169.04-4.9Q169.59-4.9 170.16-5.28 170.74-5.65 170.94-6.15L170.94-6.15 171.29-5.9Q171.29-4.25 170.24-2.88 169.19-1.5 167.59-0.65 165.99 0.2 164.29 0.2L164.29 0.2Q162.44 0.2 161.36-0.83 160.29-1.85 159.84-3.45 159.39-5.05 159.34-6.75L159.34-6.75Q157.79-3.15 155.71-1.48 153.64 0.2 151.59 0.2ZM154.94-6.15L154.94-6.15Q156.24-6.15 157.84-8.5 159.44-10.85 160.64-15.35L160.64-15.35 160.94-16.9Q160.14-18.75 159.21-19.53 158.29-20.3 157.44-20.3L157.44-20.3Q156.19-20.3 155.09-18.93 153.99-17.55 153.31-15.43 152.64-13.3 152.64-10.95L152.64-10.95Q152.64-8.7 153.29-7.43 153.94-6.15 154.94-6.15ZM182.94-26.75L182.94-26.75Q180.94-26.75 179.66-27.98 178.38-29.2 178.38-31.05L178.38-31.05Q178.38-33.05 179.88-34.5 181.38-35.95 183.53-35.95L183.53-35.95Q185.53-35.95 186.81-34.7 188.09-33.45 188.09-31.6L188.09-31.6Q188.09-29.6 186.59-28.18 185.09-26.75 182.94-26.75ZM179.44 0.2L179.44 0.2Q177.48 0.2 175.94-1.18 174.38-2.55 174.38-5.6L174.38-5.6Q174.38-7.35 174.86-8.88 175.34-10.4 175.96-11.85 176.59-13.3 177.06-14.68 177.53-16.05 177.53-17.4L177.53-17.4Q177.53-18.6 177.13-19.13 176.73-19.65 176.19-19.65L176.19-19.65Q175.34-19.65 174.53-18.55L174.53-18.55 174.19-18.75Q174.38-20.75 175.46-22.18 176.53-23.6 178.11-24.4 179.69-25.2 181.23-25.2L181.23-25.2Q183.13-25.2 184.53-23.98 185.94-22.75 185.94-20L185.94-20Q185.94-18.35 185.46-16.53 184.98-14.7 184.36-12.9 183.73-11.1 183.26-9.55 182.78-8 182.78-6.9L182.78-6.9Q182.78-5.95 183.16-5.55 183.53-5.15 183.98-5.15L183.98-5.15Q184.44-5.15 184.86-5.43 185.28-5.7 185.48-6.05L185.48-6.05 185.84-5.95Q185.84-4.1 184.86-2.73 183.88-1.35 182.44-0.58 180.98 0.2 179.44 0.2ZM207.98 0.25L207.98 0.25Q206.23 0.25 204.93-0.9 203.63-2.05 203.63-4.65L203.63-4.65Q203.63-4.9 203.63-5.15 203.63-5.4 203.68-5.65L203.68-5.65Q202.18-2.65 200.31-1.23 198.43 0.2 196.53 0.2L196.53 0.2Q194.78 0.2 193.23-1.03 191.68-2.25 190.73-4.65 189.78-7.05 189.78-10.45L189.78-10.45Q189.78-13.95 190.76-16.7 191.73-19.45 193.33-21.35 194.93-23.25 196.83-24.23 198.73-25.2 200.53-25.2L200.53-25.2Q202.53-25.2 204.13-23.98 205.73-22.75 206.33-20.1L206.33-20.1Q206.48-20.95 206.56-21.65 206.63-22.35 206.63-22.6L206.63-22.6Q206.68-23.95 208.01-24.6 209.33-25.25 210.93-25.25L210.93-25.25Q212.33-25.25 213.58-24.7 214.83-24.15 215.28-22.85L215.28-22.85 215.38-22.55Q214.78-21.2 214.18-19.3 213.58-17.4 213.08-15.33 212.58-13.25 212.28-11.28 211.98-9.3 211.98-7.8L211.98-7.8Q211.98-6.15 212.33-5.53 212.68-4.9 213.18-4.9L213.18-4.9Q214.03-4.9 214.73-6.1L214.73-6.1 215.13-5.9Q215.13-4.2 214.03-2.8 212.93-1.4 211.28-0.58 209.63 0.25 207.98 0.25ZM199.83-6.1L199.83-6.1Q201.13-6.1 202.71-8.43 204.28-10.75 205.43-15.1L205.43-15.1Q205.53-15.55 205.63-15.98 205.73-16.4 205.78-16.8L205.78-16.8Q204.98-18.65 204.11-19.43 203.23-20.2 202.38-20.2L202.38-20.2Q201.13-20.2 200.06-18.88 198.98-17.55 198.31-15.55 197.63-13.55 197.63-11.55L197.63-11.55Q197.63-8.8 198.26-7.45 198.88-6.1 199.83-6.1Z" opacity="1" transform="matrix(1,0,0,1,0,0)" fill="#000000" class="wordmark-text-0" data-fill-palette-color="primary" id="text-0"></path></svg></g></svg></g></svg></g></svg></g><g><svg viewBox="0 0 117.87601319049838 117.87601319049837" height="117.87601319049837" width="117.87601319049838"><g><svg></svg></g><g id="icon-0"><svg viewBox="0 0 117.87601319049838 117.87601319049837" height="117.87601319049837" width="117.87601319049838"><g></g><g transform="matrix(1,0,0,1,23.575202638099675,34.370221270254035)"><svg viewBox="0 0 70.72560791429903 49.135570649990306" height="49.135570649990306" width="70.72560791429903"><g><svg xmlns="http://www.w3.org/2000/svg" xmlns:xlink="http://www.w3.org/1999/xlink" version="1.1" x="0" y="0" viewBox="15.1557617 25.7924805 69.6884766 48.41503900000001" enable-background="new 0 0 100 100" xml:space="preserve" height="49.135570649990306" width="70.72560791429903" class="icon-cg-0" data-fill-palette-color="quaternary" id="cg-0"><g fill="#ffffff" data-fill-palette-color="quaternary"><g fill="#ffffff" data-fill-palette-color="quaternary"><g fill="#ffffff" data-fill-palette-color="quaternary"><g fill="#ffffff" data-fill-palette-color="quaternary"><path fill="#ffffff" d="M84.844 57.285H15.156V25.792h69.688V57.285zM17.156 55.285h65.688V27.792H17.156V55.285z" data-fill-palette-color="quaternary"></path></g></g></g><g fill="#ffffff" data-fill-palette-color="quaternary"><g fill="#ffffff" data-fill-palette-color="quaternary"><g fill="#ffffff" data-fill-palette-color="quaternary"><g fill="#ffffff" data-fill-palette-color="quaternary"><g fill="#ffffff" data-fill-palette-color="quaternary"><rect x="26.2758789" y="55.8017578" fill="#ffffff" width="2" height="17.4057617" data-fill-palette-color="quaternary"></rect></g></g></g><g fill="#ffffff" data-fill-palette-color="quaternary"><g fill="#ffffff" data-fill-palette-color="quaternary"><g fill="#ffffff" data-fill-palette-color="quaternary"><rect x="24.375" y="72.2075195" fill="#ffffff" width="6.2856445" height="2" data-fill-palette-color="quaternary"></rect></g></g></g></g><g fill="#ffffff" data-fill-palette-color="quaternary"><g fill="#ffffff" data-fill-palette-color="quaternary"><g fill="#ffffff" data-fill-palette-color="quaternary"><g fill="#ffffff" data-fill-palette-color="quaternary"><rect x="71.7241211" y="55.8017578" fill="#ffffff" width="2" height="17.4057617" data-fill-palette-color="quaternary"></rect></g></g></g><g fill="#ffffff" data-fill-palette-color="quaternary"><g fill="#ffffff" data-fill-palette-color="quaternary"><g fill="#ffffff" data-fill-palette-color="quaternary"><rect x="69.8227539" y="72.2075195" fill="#ffffff" width="6.2856445" height="2" data-fill-palette-color="quaternary"></rect></g></g></g></g></g><g fill="#ffffff" data-fill-palette-color="quaternary"><g fill="#ffffff" data-fill-palette-color="quaternary"><g fill="#ffffff" data-fill-palette-color="quaternary"><path fill="#ffffff" d="M52.451 51h-29.559V32.078h29.559V51zM24.892 49h25.559V34.078h-25.559V49z" data-fill-palette-color="quaternary"></path></g></g></g><g fill="#ffffff" data-fill-palette-color="quaternary"><g fill="#ffffff" data-fill-palette-color="quaternary"><g fill="#ffffff" data-fill-palette-color="quaternary"><rect x="58.2192383" y="33.5283203" fill="#ffffff" width="18.855957" height="2" data-fill-palette-color="quaternary"></rect></g></g></g><g fill="#ffffff" data-fill-palette-color="quaternary"><g fill="#ffffff" data-fill-palette-color="quaternary"><g fill="#ffffff" data-fill-palette-color="quaternary"><rect x="58.2192383" y="37.3964844" fill="#ffffff" width="18.855957" height="2" data-fill-palette-color="quaternary"></rect></g></g></g><g fill="#ffffff" data-fill-palette-color="quaternary"><g fill="#ffffff" data-fill-palette-color="quaternary"><g fill="#ffffff" data-fill-palette-color="quaternary"><rect x="58.2192383" y="41.2641602" fill="#ffffff" width="18.855957" height="2" data-fill-palette-color="quaternary"></rect></g></g></g><g fill="#ffffff" data-fill-palette-color="quaternary"><g fill="#ffffff" data-fill-palette-color="quaternary"><g fill="#ffffff" data-fill-palette-color="quaternary"><rect x="58.2192383" y="45.1323242" fill="#ffffff" width="15.9550781" height="2" data-fill-palette-color="quaternary"></rect></g></g></g></g></svg><g></g></g></svg></g></svg></g></svg></g></svg></g><defs></defs><mask id="e0ed5a58-7d8e-4985-bb32-17d586ca38d1"><g id="SvgjsG1022"><svg viewBox="0 0 395.52 87.38432870863069" height="87.38432870863069" width="395.52"><g><svg viewBox="0 0 533.5318291745505 117.87601319049837" height="87.38432870863069" width="395.52"><g transform="matrix(1,0,0,1,138.01182917455054,16.29111325570564)"><svg viewBox="0 0 395.52 85.29378667908709" height="85.29378667908709" width="395.52"><g id="SvgjsG1021"><svg viewBox="0 0 395.52 85.29378667908709" height="85.29378667908709" width="395.52" id="SvgjsSvg1020"><g><svg viewBox="0 0 395.52 85.29378667908709" height="85.29378667908709" width="395.52"><g transform="matrix(1,0,0,1,0,0)"><svg width="395.52" viewBox="0.7 -36.3 214.68 46.3" height="85.29378667908709" data-palette-color="#ee3e38"><path d="M4.65 0.2L4.65 0.2Q3.1 0.2 1.9-0.55 0.7-1.3 0.7-3.05L0.7-3.05Q0.7-5.8 1.88-8.65 3.05-11.5 4.78-14.28 6.5-17.05 8.22-19.7 9.95-22.35 11.13-24.75 12.3-27.15 12.3-29.2L12.3-29.2Q12.3-30.85 11.5-30.85L11.5-30.85Q10.95-30.85 10.25-29.98 9.55-29.1 9.25-27.4L9.25-27.4 8.7-27.5Q8.7-30.35 10.05-32.33 11.4-34.3 13.5-35.3 15.6-36.3 17.8-36.3L17.8-36.3Q20.35-36.3 22.58-34.85 24.8-33.4 25.65-30.25L25.65-30.25Q26-29 26.18-27.45 26.35-25.9 26.4-24.78 26.45-23.65 26.45-23.65L26.45-23.65Q26.55-19.6 26.63-16.8 26.7-14 26.9-12.1 27.1-10.2 27.45-8.9L27.45-8.9Q27.8-7.65 28.38-6.88 28.95-6.1 29.85-6.1L29.85-6.1Q30.7-6.1 31.33-6.6 31.95-7.1 32.15-7.55L32.15-7.55 32.5-7.3Q32.5-5 31.6-3.3 30.7-1.6 29.25-0.7 27.8 0.2 26.2 0.2L26.2 0.2Q24.65 0.2 23.18-0.73 21.7-1.65 20.6-3.6 19.5-5.55 19.15-8.65L19.15-8.65Q17.6-8.75 16.13-8.83 14.65-8.9 13.45-8.9L13.45-8.9Q12.65-8.9 11.93-8.88 11.2-8.85 10.5-8.8L10.5-8.8Q10.05-7.25 9.78-5.68 9.5-4.1 9.5-2.6L9.5-2.6Q9.5-1.45 8-0.63 6.5 0.2 4.65 0.2ZM12.15-13.45L12.15-13.45Q13.4-13.8 14.8-13.93 16.2-14.05 17.8-14.05L17.8-14.05 18.9-14.05Q18.8-17.75 18.63-21.65 18.45-25.55 17.35-28.9L17.35-28.9Q16.95-25.3 15.35-21.35 13.75-17.4 12.15-13.45ZM42.15 0.2L42.15 0.2Q40.35 0.2 38.77-1.05 37.2-2.3 36.22-4.7 35.25-7.1 35.25-10.5L35.25-10.5Q35.25-14 36.25-16.75 37.25-19.5 38.87-21.43 40.5-23.35 42.42-24.35 44.35-25.35 46.2-25.35L46.2-25.35Q48.25-25.35 49.85-24.08 51.45-22.8 52.05-20.1L52.05-20.1Q52.5-22.6 52.82-24.88 53.15-27.15 53.15-28.9L53.15-28.9Q53.15-31.2 52.55-32.25L52.55-32.25 52.55-32.55Q53.7-33.85 55.07-34.48 56.45-35.1 57.7-35.1L57.7-35.1Q59.35-35.1 60.5-34.08 61.65-33.05 61.65-31.15L61.65-31.15Q61.65-30.1 61.3-28.05 60.95-26 60.45-23.38 59.95-20.75 59.42-17.98 58.9-15.2 58.55-12.68 58.2-10.15 58.2-8.3L58.2-8.3Q58.2-6.75 58.52-5.83 58.85-4.9 59.6-4.9L59.6-4.9Q60.15-4.9 60.72-5.28 61.3-5.65 61.5-6.15L61.5-6.15 61.85-5.9Q61.85-4.25 60.8-2.88 59.75-1.5 58.15-0.65 56.55 0.2 54.85 0.2L54.85 0.2Q53 0.2 51.92-0.83 50.85-1.85 50.4-3.45 49.95-5.05 49.9-6.75L49.9-6.75Q48.35-3.15 46.27-1.48 44.2 0.2 42.15 0.2ZM45.5-6.15L45.5-6.15Q46.8-6.15 48.4-8.5 50-10.85 51.2-15.35L51.2-15.35 51.5-16.9Q50.7-18.75 49.77-19.53 48.85-20.3 48-20.3L48-20.3Q46.75-20.3 45.65-18.93 44.55-17.55 43.87-15.43 43.2-13.3 43.2-10.95L43.2-10.95Q43.2-8.7 43.85-7.43 44.5-6.15 45.5-6.15ZM72.59 0.45L72.59 0.45Q69.5 0.45 67.45-0.4 65.4-1.25 64.4-2.58 63.4-3.9 63.4-5.25L63.4-5.25Q63.4-7.15 65.09-8.63 66.8-10.1 69.7-10.1L69.7-10.1Q69.7-7.55 70.34-6.03 71-4.5 72.02-3.85 73.05-3.2 74-3.2L74-3.2Q75.15-3.2 75.92-3.88 76.7-4.55 76.7-5.55L76.7-5.55Q76.7-6.95 75.25-8 73.8-9.05 71.5-10.35L71.5-10.35Q70.34-11.05 69-11.98 67.65-12.9 66.7-14.23 65.75-15.55 65.75-17.4L65.75-17.4Q65.75-19.35 66.87-20.85 68-22.35 69.84-23.38 71.7-24.4 73.84-24.93 76-25.45 78.05-25.45L78.05-25.45Q81.9-25.45 83.84-23.9 85.8-22.35 85.8-20.6L85.8-20.6Q85.8-19.1 84.3-17.9 82.8-16.7 79.7-16.7L79.7-16.7Q79.75-19.25 78.65-20.43 77.55-21.6 76.3-21.6L76.3-21.6Q75.4-21.6 74.8-21.05 74.2-20.5 74.2-19.45L74.2-19.45Q74.2-18.25 74.97-17.38 75.75-16.5 76.92-15.83 78.09-15.15 79.34-14.55L79.34-14.55Q81.05-13.75 82.55-12.85 84.05-11.95 85-10.8 85.95-9.65 85.95-8L85.95-8Q85.95-5.75 84.12-3.83 82.3-1.9 79.25-0.73 76.2 0.45 72.59 0.45ZM93.44 10L93.44 10Q92.19 10 91.07 9.35 89.94 8.7 89.22 7.25 88.49 5.8 88.49 3.35L88.49 3.35Q88.49 1 89.12-1.75 89.74-4.5 90.54-7.28 91.34-10.05 91.97-12.55 92.59-15.05 92.59-17L92.59-17Q92.59-18.45 92.19-18.98 91.79-19.5 91.24-19.5L91.24-19.5Q90.74-19.5 90.24-19.2 89.74-18.9 89.39-18.5L89.39-18.5 89.04-18.7Q89.04-20.45 90.07-21.93 91.09-23.4 92.69-24.3 94.29-25.2 95.99-25.2L95.99-25.2Q97.64-25.2 98.64-24.38 99.64-23.55 100.17-22.25 100.69-20.95 100.79-19.45L100.79-19.45Q102.69-22.45 104.94-23.9 107.19-25.35 109.19-25.35L109.19-25.35Q111.89-25.35 113.77-22.8 115.64-20.25 115.64-14.9L115.64-14.9Q115.64-9.9 114.04-6.53 112.44-3.15 110.02-1.48 107.59 0.2 105.09 0.2L105.09 0.2Q102.94 0.2 101.12-1.07 99.29-2.35 98.29-4.8L98.29-4.8Q97.84-2.75 97.52-0.75 97.19 1.25 97.19 3.15L97.19 3.15Q97.19 4.2 97.32 5.2 97.44 6.2 97.74 7.2L97.74 7.2 97.74 7.5Q97.09 8.75 95.92 9.38 94.74 10 93.44 10ZM102.64-4.65L102.64-4.65Q103.84-4.65 104.74-5.6 105.64-6.55 106.29-8.08 106.94-9.6 107.27-11.35 107.59-13.1 107.59-14.75L107.59-14.75Q107.59-16.85 107.04-18.32 106.49-19.8 105.34-19.8L105.34-19.8Q103.89-19.8 102.09-16.88 100.29-13.95 99.29-8L99.29-8Q99.74-6.45 100.64-5.55 101.54-4.65 102.64-4.65ZM129.14 0.35L129.14 0.35Q125.49 0.35 123.09-1.13 120.69-2.6 119.49-5.03 118.29-7.45 118.29-10.25L118.29-10.25Q118.29-12.9 119.31-15.58 120.34-18.25 122.31-20.45 124.29-22.65 127.12-24 129.94-25.35 133.49-25.35L133.49-25.35Q137.89-25.35 139.91-23.38 141.94-21.4 141.94-18.6L141.94-18.6Q141.94-16.2 140.66-14.18 139.39-12.15 137.29-10.93 135.19-9.7 132.69-9.7L132.69-9.7Q131.39-9.7 130.04-10.1 128.69-10.5 127.39-11.35L127.39-11.35Q127.64-8.25 129.19-6.85 130.74-5.45 132.89-5.45L132.89-5.45Q134.39-5.45 135.89-6.03 137.39-6.6 138.66-7.53 139.94-8.45 140.64-9.5L140.64-9.5 140.99-9.25Q140.99-6.65 139.91-4.83 138.84-3 137.09-1.85 135.34-0.7 133.26-0.18 131.19 0.35 129.14 0.35ZM130.29-13.15L130.29-13.15Q131.89-13.15 132.89-14.08 133.89-15 134.39-16.25 134.89-17.5 134.89-18.45L134.89-18.45Q134.89-19.6 134.24-20.38 133.59-21.15 132.44-21.15L132.44-21.15Q131.54-21.15 130.47-20.5 129.39-19.85 128.54-18.28 127.69-16.7 127.44-13.9L127.44-13.9Q129.04-13.15 130.29-13.15ZM151.59 0.2L151.59 0.2Q149.79 0.2 148.21-1.05 146.64-2.3 145.66-4.7 144.69-7.1 144.69-10.5L144.69-10.5Q144.69-14 145.69-16.75 146.69-19.5 148.31-21.43 149.94-23.35 151.86-24.35 153.79-25.35 155.64-25.35L155.64-25.35Q157.69-25.35 159.29-24.08 160.89-22.8 161.49-20.1L161.49-20.1Q161.94-22.6 162.26-24.88 162.59-27.15 162.59-28.9L162.59-28.9Q162.59-31.2 161.99-32.25L161.99-32.25 161.99-32.55Q163.14-33.85 164.51-34.48 165.89-35.1 167.14-35.1L167.14-35.1Q168.79-35.1 169.94-34.08 171.09-33.05 171.09-31.15L171.09-31.15Q171.09-30.1 170.74-28.05 170.39-26 169.89-23.38 169.39-20.75 168.86-17.98 168.34-15.2 167.99-12.68 167.64-10.15 167.64-8.3L167.64-8.3Q167.64-6.75 167.96-5.83 168.29-4.9 169.04-4.9L169.04-4.9Q169.59-4.9 170.16-5.28 170.74-5.65 170.94-6.15L170.94-6.15 171.29-5.9Q171.29-4.25 170.24-2.88 169.19-1.5 167.59-0.65 165.99 0.2 164.29 0.2L164.29 0.2Q162.44 0.2 161.36-0.83 160.29-1.85 159.84-3.45 159.39-5.05 159.34-6.75L159.34-6.75Q157.79-3.15 155.71-1.48 153.64 0.2 151.59 0.2ZM154.94-6.15L154.94-6.15Q156.24-6.15 157.84-8.5 159.44-10.85 160.64-15.35L160.64-15.35 160.94-16.9Q160.14-18.75 159.21-19.53 158.29-20.3 157.44-20.3L157.44-20.3Q156.19-20.3 155.09-18.93 153.99-17.55 153.31-15.43 152.64-13.3 152.64-10.95L152.64-10.95Q152.64-8.7 153.29-7.43 153.94-6.15 154.94-6.15ZM182.94-26.75L182.94-26.75Q180.94-26.75 179.66-27.98 178.38-29.2 178.38-31.05L178.38-31.05Q178.38-33.05 179.88-34.5 181.38-35.95 183.53-35.95L183.53-35.95Q185.53-35.95 186.81-34.7 188.09-33.45 188.09-31.6L188.09-31.6Q188.09-29.6 186.59-28.18 185.09-26.75 182.94-26.75ZM179.44 0.2L179.44 0.2Q177.48 0.2 175.94-1.18 174.38-2.55 174.38-5.6L174.38-5.6Q174.38-7.35 174.86-8.88 175.34-10.4 175.96-11.85 176.59-13.3 177.06-14.68 177.53-16.05 177.53-17.4L177.53-17.4Q177.53-18.6 177.13-19.13 176.73-19.65 176.19-19.65L176.19-19.65Q175.34-19.65 174.53-18.55L174.53-18.55 174.19-18.75Q174.38-20.75 175.46-22.18 176.53-23.6 178.11-24.4 179.69-25.2 181.23-25.2L181.23-25.2Q183.13-25.2 184.53-23.98 185.94-22.75 185.94-20L185.94-20Q185.94-18.35 185.46-16.53 184.98-14.7 184.36-12.9 183.73-11.1 183.26-9.55 182.78-8 182.78-6.9L182.78-6.9Q182.78-5.95 183.16-5.55 183.53-5.15 183.98-5.15L183.98-5.15Q184.44-5.15 184.86-5.43 185.28-5.7 185.48-6.05L185.48-6.05 185.84-5.95Q185.84-4.1 184.86-2.73 183.88-1.35 182.44-0.58 180.98 0.2 179.44 0.2ZM207.98 0.25L207.98 0.25Q206.23 0.25 204.93-0.9 203.63-2.05 203.63-4.65L203.63-4.65Q203.63-4.9 203.63-5.15 203.63-5.4 203.68-5.65L203.68-5.65Q202.18-2.65 200.31-1.23 198.43 0.2 196.53 0.2L196.53 0.2Q194.78 0.2 193.23-1.03 191.68-2.25 190.73-4.65 189.78-7.05 189.78-10.45L189.78-10.45Q189.78-13.95 190.76-16.7 191.73-19.45 193.33-21.35 194.93-23.25 196.83-24.23 198.73-25.2 200.53-25.2L200.53-25.2Q202.53-25.2 204.13-23.98 205.73-22.75 206.33-20.1L206.33-20.1Q206.48-20.95 206.56-21.65 206.63-22.35 206.63-22.6L206.63-22.6Q206.68-23.95 208.01-24.6 209.33-25.25 210.93-25.25L210.93-25.25Q212.33-25.25 213.58-24.7 214.83-24.15 215.28-22.85L215.28-22.85 215.38-22.55Q214.78-21.2 214.18-19.3 213.58-17.4 213.08-15.33 212.58-13.25 212.28-11.28 211.98-9.3 211.98-7.8L211.98-7.8Q211.98-6.15 212.33-5.53 212.68-4.9 213.18-4.9L213.18-4.9Q214.03-4.9 214.73-6.1L214.73-6.1 215.13-5.9Q215.13-4.2 214.03-2.8 212.93-1.4 211.28-0.58 209.63 0.25 207.98 0.25ZM199.83-6.1L199.83-6.1Q201.13-6.1 202.71-8.43 204.28-10.75 205.43-15.1L205.43-15.1Q205.53-15.55 205.63-15.98 205.73-16.4 205.78-16.8L205.78-16.8Q204.98-18.65 204.11-19.43 203.23-20.2 202.38-20.2L202.38-20.2Q201.13-20.2 200.06-18.88 198.98-17.55 198.31-15.55 197.63-13.55 197.63-11.55L197.63-11.55Q197.63-8.8 198.26-7.45 198.88-6.1 199.83-6.1Z" opacity="1" transform="matrix(1,0,0,1,0,0)" fill="black" class="wordmark-text-0" id="SvgjsPath1019"></path></svg></g></svg></g></svg></g></svg></g><g><svg viewBox="0 0 117.87601319049838 117.87601319049837" height="117.87601319049837" width="117.87601319049838"><g><svg></svg></g><g id="SvgjsG1018"><svg viewBox="0 0 117.87601319049838 117.87601319049837" height="117.87601319049837" width="117.87601319049838"><g><path transform="scale(1.17876,1.17876)" d="M30 100c-16.569 0-30-13.431-30-30v-40c0-16.569 13.431-30 30-30h40c16.569 0 30 13.431 30 30v40c0 16.569-13.431 30-30 30z" fill="white" fill-rule="nonzero" stroke="none" stroke-width="1" stroke-linecap="butt" stroke-linejoin="miter" stroke-miterlimit="10" stroke-dasharray="" stroke-dashoffset="0" font-family="none" font-weight="none" font-size="none" text-anchor="none" style="mix-blend-mode: normal"></path></g><g transform="matrix(1,0,0,1,23.575202638099675,34.370221270254035)"><svg viewBox="0 0 70.72560791429903 49.135570649990306" height="49.135570649990306" width="70.72560791429903"><g><svg xmlns="http://www.w3.org/2000/svg" xmlns:xlink="http://www.w3.org/1999/xlink" version="1.1" x="0" y="0" viewBox="15.1557617 25.7924805 69.6884766 48.41503900000001" enable-background="new 0 0 100 100" xml:space="preserve" height="49.135570649990306" width="70.72560791429903" class="icon-cg-0" data-fill-palette-color="quaternary" id="SvgjsSvg1017"><g fill="black"><g fill="black"><g fill="black"><g fill="black"><path fill="black" d="M84.844 57.285H15.156V25.792h69.688V57.285zM17.156 55.285h65.688V27.792H17.156V55.285z"></path></g></g></g><g fill="black"><g fill="black"><g fill="black"><g fill="black"><g fill="black"><rect x="26.2758789" y="55.8017578" fill="black" width="2" height="17.4057617"></rect></g></g></g><g fill="black"><g fill="black"><g fill="black"><rect x="24.375" y="72.2075195" fill="black" width="6.2856445" height="2"></rect></g></g></g></g><g fill="black"><g fill="black"><g fill="black"><g fill="black"><rect x="71.7241211" y="55.8017578" fill="black" width="2" height="17.4057617"></rect></g></g></g><g fill="black"><g fill="black"><g fill="black"><rect x="69.8227539" y="72.2075195" fill="black" width="6.2856445" height="2"></rect></g></g></g></g></g><g fill="black"><g fill="black"><g fill="black"><path fill="black" d="M52.451 51h-29.559V32.078h29.559V51zM24.892 49h25.559V34.078h-25.559V49z"></path></g></g></g><g fill="black"><g fill="black"><g fill="black"><rect x="58.2192383" y="33.5283203" fill="black" width="18.855957" height="2"></rect></g></g></g><g fill="black"><g fill="black"><g fill="black"><rect x="58.2192383" y="37.3964844" fill="black" width="18.855957" height="2"></rect></g></g></g><g fill="black"><g fill="black"><g fill="black"><rect x="58.2192383" y="41.2641602" fill="black" width="18.855957" height="2"></rect></g></g></g><g fill="black"><g fill="black"><g fill="black"><rect x="58.2192383" y="45.1323242" fill="black" width="15.9550781" height="2"></rect></g></g></g></g></svg><g></g></g></svg></g></svg></g></svg></g></svg></g><defs><mask></mask></defs></svg><rect width="395.52" height="87.38432870863069" fill="black" stroke="none" visibility="hidden"></rect></g></mask><linearGradient x1="0.054" x2="0.941" y1="0.5" y2="0.5" id="95dbe698-c35d-4001-8f48-8e096bb64cd1"><stop stop-color="#0f3054" offset="0"></stop><stop stop-color="#3b8dcb" offset="0.498"></stop><stop stop-color="#0f3054" offset="1"></stop></linearGradient><rect width="395.52" height="87.38432870863069" fill="#000000" mask="url(#e0ed5a58-7d8e-4985-bb32-17d586ca38d1)" data-fill-palette-color="accent"></rect></svg><rect width="395.52" height="87.38432870863069" fill="none" stroke="none" visibility="hidden"></rect></g></svg></g></svg>